<mxfile host="app.diagrams.net" agent="Mozilla/5.0 (Windows NT 10.0; Win64; x64) AppleWebKit/537.36 (KHTML, like Gecko) Chrome/134.0.0.0 Safari/537.36 Edg/134.0.0.0" version="26.1.0">
  <diagram name="第 1 页" id="vQBjwgEnrDdj-A_OlK9j">
    <mxGraphModel dx="1166" dy="770" grid="1" gridSize="10" guides="1" tooltips="1" connect="1" arrows="1" fold="1" page="1" pageScale="1" pageWidth="827" pageHeight="1169" math="0" shadow="0">
      <root>
        <mxCell id="0" />
        <mxCell id="1" parent="0" />
        <mxCell id="-2VoswN02PARsG0iRygN-12" style="edgeStyle=orthogonalEdgeStyle;rounded=0;orthogonalLoop=1;jettySize=auto;html=1;exitX=0.5;exitY=1;exitDx=0;exitDy=0;entryX=0.5;entryY=0;entryDx=0;entryDy=0;" edge="1" parent="1" source="-2VoswN02PARsG0iRygN-1" target="-2VoswN02PARsG0iRygN-2">
          <mxGeometry relative="1" as="geometry" />
        </mxCell>
        <mxCell id="-2VoswN02PARsG0iRygN-1" value="开始" style="rounded=1;whiteSpace=wrap;html=1;arcSize=50;" vertex="1" parent="1">
          <mxGeometry x="359" y="140" width="110" height="40" as="geometry" />
        </mxCell>
        <mxCell id="-2VoswN02PARsG0iRygN-13" style="edgeStyle=orthogonalEdgeStyle;rounded=0;orthogonalLoop=1;jettySize=auto;html=1;exitX=0.5;exitY=1;exitDx=0;exitDy=0;entryX=0.5;entryY=0;entryDx=0;entryDy=0;" edge="1" parent="1" source="-2VoswN02PARsG0iRygN-2" target="-2VoswN02PARsG0iRygN-3">
          <mxGeometry relative="1" as="geometry" />
        </mxCell>
        <mxCell id="-2VoswN02PARsG0iRygN-2" value="登录成功获取令牌" style="rounded=0;whiteSpace=wrap;html=1;" vertex="1" parent="1">
          <mxGeometry x="356.5" y="210" width="115" height="40" as="geometry" />
        </mxCell>
        <mxCell id="-2VoswN02PARsG0iRygN-14" style="edgeStyle=orthogonalEdgeStyle;rounded=0;orthogonalLoop=1;jettySize=auto;html=1;exitX=0.5;exitY=1;exitDx=0;exitDy=0;entryX=0.5;entryY=0;entryDx=0;entryDy=0;" edge="1" parent="1" source="-2VoswN02PARsG0iRygN-3" target="-2VoswN02PARsG0iRygN-5">
          <mxGeometry relative="1" as="geometry" />
        </mxCell>
        <mxCell id="-2VoswN02PARsG0iRygN-3" value="路由前置守卫获取动态路由和权限信息" style="rounded=0;whiteSpace=wrap;html=1;" vertex="1" parent="1">
          <mxGeometry x="354" y="290" width="120" height="60" as="geometry" />
        </mxCell>
        <mxCell id="-2VoswN02PARsG0iRygN-15" style="edgeStyle=orthogonalEdgeStyle;rounded=0;orthogonalLoop=1;jettySize=auto;html=1;exitX=0.5;exitY=1;exitDx=0;exitDy=0;entryX=0.5;entryY=0;entryDx=0;entryDy=0;" edge="1" parent="1" source="-2VoswN02PARsG0iRygN-5" target="-2VoswN02PARsG0iRygN-6">
          <mxGeometry relative="1" as="geometry" />
        </mxCell>
        <mxCell id="-2VoswN02PARsG0iRygN-27" value="有权限" style="edgeLabel;html=1;align=center;verticalAlign=middle;resizable=0;points=[];" vertex="1" connectable="0" parent="-2VoswN02PARsG0iRygN-15">
          <mxGeometry x="-0.5048" y="1" relative="1" as="geometry">
            <mxPoint as="offset" />
          </mxGeometry>
        </mxCell>
        <mxCell id="-2VoswN02PARsG0iRygN-25" style="edgeStyle=orthogonalEdgeStyle;rounded=0;orthogonalLoop=1;jettySize=auto;html=1;" edge="1" parent="1" source="-2VoswN02PARsG0iRygN-5" target="-2VoswN02PARsG0iRygN-11">
          <mxGeometry relative="1" as="geometry" />
        </mxCell>
        <mxCell id="-2VoswN02PARsG0iRygN-26" value="无权限" style="edgeLabel;html=1;align=center;verticalAlign=middle;resizable=0;points=[];" vertex="1" connectable="0" parent="-2VoswN02PARsG0iRygN-25">
          <mxGeometry x="0.0867" y="-2" relative="1" as="geometry">
            <mxPoint y="1" as="offset" />
          </mxGeometry>
        </mxCell>
        <mxCell id="-2VoswN02PARsG0iRygN-5" value="前置守卫判断当前&lt;div&gt;访问的路由是否在权限信息当中&lt;/div&gt;" style="rhombus;whiteSpace=wrap;html=1;" vertex="1" parent="1">
          <mxGeometry x="341.5" y="370" width="145" height="100" as="geometry" />
        </mxCell>
        <mxCell id="-2VoswN02PARsG0iRygN-16" style="edgeStyle=orthogonalEdgeStyle;rounded=0;orthogonalLoop=1;jettySize=auto;html=1;exitX=0.5;exitY=1;exitDx=0;exitDy=0;entryX=0.5;entryY=0;entryDx=0;entryDy=0;" edge="1" parent="1" source="-2VoswN02PARsG0iRygN-6" target="-2VoswN02PARsG0iRygN-7">
          <mxGeometry relative="1" as="geometry" />
        </mxCell>
        <mxCell id="-2VoswN02PARsG0iRygN-6" value="页面渲染" style="rounded=0;whiteSpace=wrap;html=1;" vertex="1" parent="1">
          <mxGeometry x="351.5" y="520" width="125" height="30" as="geometry" />
        </mxCell>
        <mxCell id="-2VoswN02PARsG0iRygN-17" style="edgeStyle=orthogonalEdgeStyle;rounded=0;orthogonalLoop=1;jettySize=auto;html=1;exitX=0.5;exitY=1;exitDx=0;exitDy=0;entryX=0.5;entryY=0;entryDx=0;entryDy=0;" edge="1" parent="1" source="-2VoswN02PARsG0iRygN-7" target="-2VoswN02PARsG0iRygN-8">
          <mxGeometry relative="1" as="geometry" />
        </mxCell>
        <mxCell id="-2VoswN02PARsG0iRygN-23" value="有权限" style="edgeLabel;html=1;align=center;verticalAlign=middle;resizable=0;points=[];" vertex="1" connectable="0" parent="-2VoswN02PARsG0iRygN-17">
          <mxGeometry x="-0.36" y="2" relative="1" as="geometry">
            <mxPoint as="offset" />
          </mxGeometry>
        </mxCell>
        <mxCell id="-2VoswN02PARsG0iRygN-22" style="edgeStyle=orthogonalEdgeStyle;rounded=0;orthogonalLoop=1;jettySize=auto;html=1;exitX=1;exitY=0.5;exitDx=0;exitDy=0;" edge="1" parent="1" source="-2VoswN02PARsG0iRygN-7" target="-2VoswN02PARsG0iRygN-10">
          <mxGeometry relative="1" as="geometry" />
        </mxCell>
        <mxCell id="-2VoswN02PARsG0iRygN-24" value="无权限" style="edgeLabel;html=1;align=center;verticalAlign=middle;resizable=0;points=[];" vertex="1" connectable="0" parent="-2VoswN02PARsG0iRygN-22">
          <mxGeometry x="-0.5495" y="4" relative="1" as="geometry">
            <mxPoint as="offset" />
          </mxGeometry>
        </mxCell>
        <mxCell id="-2VoswN02PARsG0iRygN-7" value="渲染时判断按钮权限" style="rhombus;whiteSpace=wrap;html=1;" vertex="1" parent="1">
          <mxGeometry x="344" y="570" width="140" height="100" as="geometry" />
        </mxCell>
        <mxCell id="-2VoswN02PARsG0iRygN-18" style="edgeStyle=orthogonalEdgeStyle;rounded=0;orthogonalLoop=1;jettySize=auto;html=1;exitX=0.5;exitY=1;exitDx=0;exitDy=0;entryX=0.5;entryY=0;entryDx=0;entryDy=0;" edge="1" parent="1" source="-2VoswN02PARsG0iRygN-8" target="-2VoswN02PARsG0iRygN-9">
          <mxGeometry relative="1" as="geometry" />
        </mxCell>
        <mxCell id="-2VoswN02PARsG0iRygN-8" value="正常渲染" style="rounded=0;whiteSpace=wrap;html=1;" vertex="1" parent="1">
          <mxGeometry x="354" y="720" width="120" height="60" as="geometry" />
        </mxCell>
        <mxCell id="-2VoswN02PARsG0iRygN-9" value="结束" style="rounded=1;whiteSpace=wrap;html=1;arcSize=50;" vertex="1" parent="1">
          <mxGeometry x="359" y="800" width="110" height="40" as="geometry" />
        </mxCell>
        <mxCell id="-2VoswN02PARsG0iRygN-21" style="edgeStyle=orthogonalEdgeStyle;rounded=0;orthogonalLoop=1;jettySize=auto;html=1;entryX=1;entryY=0.5;entryDx=0;entryDy=0;" edge="1" parent="1" source="-2VoswN02PARsG0iRygN-10" target="-2VoswN02PARsG0iRygN-9">
          <mxGeometry relative="1" as="geometry">
            <Array as="points">
              <mxPoint x="600" y="820" />
            </Array>
          </mxGeometry>
        </mxCell>
        <mxCell id="-2VoswN02PARsG0iRygN-10" value="不进行渲染" style="rounded=0;whiteSpace=wrap;html=1;" vertex="1" parent="1">
          <mxGeometry x="540" y="690" width="120" height="60" as="geometry" />
        </mxCell>
        <mxCell id="-2VoswN02PARsG0iRygN-20" style="edgeStyle=orthogonalEdgeStyle;rounded=0;orthogonalLoop=1;jettySize=auto;html=1;entryX=0;entryY=0.5;entryDx=0;entryDy=0;" edge="1" parent="1" source="-2VoswN02PARsG0iRygN-11" target="-2VoswN02PARsG0iRygN-9">
          <mxGeometry relative="1" as="geometry">
            <Array as="points">
              <mxPoint x="230" y="820" />
            </Array>
          </mxGeometry>
        </mxCell>
        <mxCell id="-2VoswN02PARsG0iRygN-11" value="导航到404页面" style="rounded=0;whiteSpace=wrap;html=1;" vertex="1" parent="1">
          <mxGeometry x="170" y="590" width="120" height="60" as="geometry" />
        </mxCell>
      </root>
    </mxGraphModel>
  </diagram>
</mxfile>
